<svg xmlns="http://www.w3.org/2000/svg" viewBox="0 0 24 16">
	<path fill="#00DC82" d="M13.4423 16.0027H22.3238C22.6072 16.0027 22.8784 15.9032 23.1239 15.7627 23.3695 15.6222 23.6223 15.4458 23.7641 15.2026 23.9057 14.9593 24.0042 14.6833 24.0041 14.4024 24.0039 14.1215 23.906 13.8456 23.7641 13.6024L17.763 3.2806C17.6213 3.0373 17.4484 2.8609 17.2029 2.7205 16.9575 2.5801 16.6061 2.4804 16.3228 2.4804 16.0394 2.4804 15.7681 2.5801 15.5226 2.7205 15.2772 2.8609 15.1042 3.0373 14.9626 3.2806L13.4423 5.921 10.4018.7999C10.2601.5568 10.0872.3004 9.8417.16 9.5962.0196 9.325 0 9.0415 0 8.7582 0 8.4869.0196 8.2414.16 7.996.3004 7.743.5568 7.6013.7999L.16 13.6024C.0182 13.8456.0002 14.1215 0 14.4024-.0002 14.6833.0183 14.9593.16 15.2026.3017 15.4458.5546 15.6222.8001 15.7627 1.0457 15.9032 1.3168 16.0027 1.6003 16.0027H7.2012C9.4206 16.0027 11.0358 15.0072 12.1621 13.1222L14.8825 8.4014 16.3228 5.921 20.7235 13.4423H14.8825L13.4423 16.0027ZM7.1212 13.4423H3.2005L9.0415 3.3606 12.002 8.4014 10.0411 11.8199C9.2931 13.043 8.4405 13.4423 7.1212 13.4423Z" fill="#000000"/>
</svg>