<svg xmlns="http://www.w3.org/2000/svg" viewBox="-0.00000128627 -0.0345999 23.99 23.96">
	<path fill="#6aad3c" d="M 21.7805 17.2187 c -2.9539 3.935 -9.2613 2.607 -13.3064 2.7972 c 0 0 -0.7167 0.0407 -1.4369 0.1591 c 0 0 0.2728 -0.1161 0.621 -0.2369 c 2.8403 -0.9822 4.1826 -1.1796 5.9091 -2.0662 c 3.2423 -1.6606 6.4701 -5.2797 7.127 -9.0389 c -1.2347 3.6156 -4.989 6.7274 -8.4071 7.9908 c -2.339 0.8638 -6.5706 1.7037 -6.5718 1.7037 a 6.317 6.317 90 0 1 -0.1711 -0.0909 c -2.8773 -1.3998 -2.9611 -7.6331 2.266 -9.6419 c 2.2923 -0.8805 4.4829 -0.3972 6.9606 -0.987 c 2.6417 -0.6281 5.7021 -2.6082 6.9451 -5.1972 c 1.3938 4.1372 3.0687 10.6073 0.0646 14.6081 z m 0.0502 -15.8882 a 11.0213 11.0213 90 0 1 -1.2741 2.2612 a 11.9425 11.9425 90 0 0 -8.5746 -3.6263 C 5.3742 -0.0347 0 5.3396 0 11.946 a 11.9437 11.9437 90 0 0 3.8345 8.7744 l 0.2632 0.2321 a 1.0241 1.0241 90 1 1 0.0012 0.0012 l 0.1782 0.1579 A 11.9162 11.9162 90 0 0 11.982 23.9281 c 6.3146 0 11.501 -4.9148 11.9449 -11.117 c 0.3278 -3.0377 -0.5695 -6.8949 -2.0961 -11.4807" fill="#000000"/>
</svg>