<svg xmlns="http://www.w3.org/2000/svg" viewBox="0.0000607967 0 18 24">
	<g fill="#E76F00">
		<path d="M 9.0391 6.3318 C 13.981 2.4951 11.4446 0 11.4446 0 C 11.8221 3.9663 7.3612 4.9029 6.1653 7.6284 C 5.3494 9.4882 6.7242 11.1166 9.0374 13.1691 C 8.8329 12.7145 8.5174 12.2729 8.1981 11.8257 C 7.109 10.3004 5.9745 8.7117 9.0391 6.3318"/>
		<path d="M 9.828 14.0105 C 9.828 14.0105 11.3149 12.8109 10.1374 11.4778 C 6.146 6.9552 14.5028 4.9029 14.5028 4.9029 C 9.4006 7.3608 10.1623 8.8198 11.4447 10.5922 C 12.8178 12.4928 9.828 14.0105 9.828 14.0105"/>
	</g>
	<g fill="#5382A1">
		<path d="M 14.2055 17.5876 C 18.7853 15.2473 16.6678 12.9983 15.1899 13.3014 C 14.8275 13.3755 14.666 13.4397 14.666 13.4397 C 14.666 13.4397 14.8006 13.2326 15.0574 13.1428 C 17.9814 12.1321 20.2301 16.1243 14.1134 17.7055 C 14.1134 17.7056 14.1843 17.6432 14.2055 17.5876"/>
		<path d="M 4.6757 14.6255 C 1.8102 14.2492 6.2468 13.2129 6.2468 13.2129 C 6.2468 13.2129 4.524 13.0987 2.4049 14.1059 C -0.1007 15.2979 8.6028 15.8399 13.108 14.6747 C 13.5764 14.3602 14.2238 14.0875 14.2238 14.0875 C 14.2238 14.0875 12.3801 14.4113 10.5441 14.5636 C 8.2975 14.7487 5.8856 14.7848 4.6757 14.6255"/>
		<path d="M 5.7658 16.8601 C 4.168 16.6977 5.2143 15.9359 5.2143 15.9359 C 1.0794 17.2855 7.5148 18.8159 13.2925 17.1545 C 12.6784 16.9415 12.2879 16.5521 12.2879 16.5521 C 9.464 17.0869 7.8323 17.0697 5.7658 16.8601"/>
		<path d="M 6.4621 19.278 C 4.8655 19.0976 5.7982 18.5641 5.7982 18.5641 C 2.045 19.5955 8.0812 21.7261 12.8599 19.7122 C 12.0772 19.4128 11.5168 19.0673 11.5168 19.0673 C 9.3852 19.4639 8.3965 19.4951 6.4621 19.278"/>
		<path d="M 16.4572 20.508 C 16.4572 20.508 17.1474 21.0673 15.697 21.5001 C 12.9386 22.3218 4.2165 22.5699 1.7936 21.5328 C 0.9226 21.1603 2.5559 20.6431 3.0696 20.5346 C 3.6055 20.4204 3.9117 20.4416 3.9117 20.4416 C 2.9432 19.7707 -2.349 21.7592 1.2236 22.3287 C 10.9667 23.8826 18.9845 21.629 16.4572 20.508"/>
		<path d="M 18.0035 21.7301 C 17.8435 23.7756 11.093 24.2059 6.6968 23.9291 C 3.829 23.7483 3.2542 23.2964 3.2458 23.2897 C 5.9906 23.7347 10.6182 23.8159 14.3703 23.1214 C 17.6961 22.5056 18.0035 21.7301 18.0035 21.7301"/>
	</g>
</svg>