<svg xmlns="http://www.w3.org/2000/svg" viewBox="0.014497 0 23.96 24">
	<g fill="#df224e">
		<path d="M14.1292 0a1.5263 1.5263 90 00-.4834.0857c1.384.9101-.2486 2.2282.5142 3.3422a1.9153 1.9153 90 01.9231-1.9153c.2443-.2031.4011-.276.3488-.6119C15.347.3505 14.6135 0 14.1292 0Zm1.9711.3548c-.1911.9624-.4285.9975-1.1338 1.6172a1.5606 1.5606 90 00-.4517 1.8777c-2.9137-1.1312-6.6486-1.8151-9.3866.1422-.9847.7035-1.5854 1.7139-2.7998 2.1262-.785.2691-1.5563.1894-2.0482.9675a1.2109 1.2109 90 00.048 1.5701c.1465.1499.4285.246.545.3985.0677.0857.066.1714.1302.2854a2.2282 2.2282 90 00.4834.7095c.1259.1036.5587.2048.6325.3153.0926.1379-.1474.6856.054.7713.1354.0626.5322-.6376.5707-.6994-.0789.551-.1825 1.5288.4371.7147.294-.3865.3119-.5142.8064-.5999a7.0274 7.0274 90 01.9572-.0995 7.1662 7.1662 90 017.389 6.532c-.0926-.4285-.6522-1.114-1.1732-.9512-.222.0686-.3042.4517-.4499.6736a3.2335 3.2335 90 01-.6728.7438 4.0167 4.0167 90 00-.0617-1.2444c-.156.6411-.4688 1.7045-1.2564 1.5323a1.4158 1.4158 90 01-1.1381-.9787c-.1019-.6513.5862-1.4149-.5202-1.4689-2.2196-.1088-1.7062 3.1554-.3959 4.0065a2.8041 2.8041 90 00-.8699.2426 5.9072 5.9072 90 008.8065-4.2181 6.0487 6.0487 90 01-.0129 2.6438 6.1815 6.1815 90 01-.4748 1.336 5.8113 5.8113 90 01-1.114 1.5511c-.2691.2666-.7627.5347-.9324.8064a11.4915 11.4915 90 003.0166-.8296 9.9737 9.9737 90 01-3.858 3.167 9.9317 9.9317 90 007.97-5.064 9.99 9.99 90 01-1.6669 4.0004 9.882 9.882 90 004.2636-6.67 9.96 9.96 90 01.1791 2.9995 10.6422 10.6422 90 001.6189-9.0549 13.5019 13.5019 90 00-1.4475-3.3954 12.716 12.716 90 00-.8047-1.1947c-.1139-.1482-.7233-.6908-.7233-.857q-.0077.0249-.0129 0c0 2.7835-2.9995 4.5703-5.5113 3.8248a4.285 4.285 90 003.896-3.5711A4.285 4.285 90 0016.1003.3548Z"/>
	</g>
</svg>